# xmcd CD database file
#
# Track frame offsets:
#	150
#	26012
#	51255
#	70563
#	88907
#	115982
#	132770
#	156136
#	170426
#	191542
#
# Disc length: 2785 seconds
#
# Revision: 0
# Processed by: cddbd v1.5.2PL0 Copyright (c) Steve Scherf et al.
# Submitted via: CDex 1.51
#
DISCID=820adf0a
DTITLE=Saint Dirt Elementary School - Fall (in love) by April
DYEAR=2005
DGENRE=Jazz
TTITLE0=The Heart Attack Commercial
TTITLE1=Mirth of Perth
TTITLE2=The Woman That Thinks Like a Cow
TTITLE3=Grand Opening at Ting
TTITLE4=The One Legged Man Changed His Mind and Decided to Go Home
TTITLE5=The Kids Loved it So Much They Pulled Their Eyes Out
TTITLE6=A Classic Letter Saying I'm Gone
TTITLE7=The Gunk Under Pretty Pebbles
TTITLE8=The Next Generation of Public School Teachers
TTITLE9=Everyday I Fall in Love
EXTD=YEAR: 2005
EXTT0=
EXTT1=
EXTT2=
EXTT3=
EXTT4=
EXTT5=
EXTT6=
EXTT7=
EXTT8=
EXTT9=
PLAYORDER=
